<svg xmlns="http://www.w3.org/2000/svg" width="22.995" height="22.979" viewBox="0 0 22.995 22.979">
  <g id="Group_2182" data-name="Group 2182" transform="translate(-11.24 -79.905)">
    <path id="Path_73" data-name="Path 73" d="M11.24,90.721c.057-.406.1-.814.173-1.217a11.518,11.518,0,0,1,4.281-7.092,11.106,11.106,0,0,1,5.922-2.449,10.873,10.873,0,0,1,7.022,1.656,11.562,11.562,0,0,1,4.974,6.208,10.674,10.674,0,0,1-.6,8.565,11.632,11.632,0,0,1-6.806,5.92,10.2,10.2,0,0,1-2.6.531,1.5,1.5,0,0,0-.194.04H22.1a1.64,1.64,0,0,0-.175-.032,12.262,12.262,0,0,1-5.132-1.516.432.432,0,0,0-.31-.021c-.93.3-1.856.611-2.782.923-.627.211-1.252.43-1.878.646H11.24V102.3c.029-.067.064-.133.087-.2.49-1.464.975-2.93,1.471-4.393a.509.509,0,0,0-.045-.46,11.263,11.263,0,0,1-1.3-3.674c-.09-.513-.143-1.033-.213-1.549Zm1.162,11c.106-.033.176-.054.244-.077,1.183-.394,2.372-.77,3.545-1.19a1.205,1.205,0,0,1,1.092.112,10.718,10.718,0,0,0,7.47,1.21,10.369,10.369,0,0,0,6.389-4.046,10.066,10.066,0,0,0,1.976-8.307,10.351,10.351,0,0,0-4.054-6.434,10.1,10.1,0,0,0-8.394-1.962,10.374,10.374,0,0,0-5.7,3.258,10.259,10.259,0,0,0-2.812,6.628A10.837,10.837,0,0,0,13.649,97a.824.824,0,0,1,.08.742C13.282,99.053,12.852,100.365,12.4,101.717Z" transform="translate(0 0)" fill="#ec4d37"/>
    <path id="Path_74" data-name="Path 74" d="M207.678,291.767v-3.591c-.135,0-.26,0-.385,0a.456.456,0,0,1-.5-.485q-.012-.864,0-1.728a.446.446,0,0,1,.482-.477q1.761-.008,3.522,0c.319,0,.479.2.479.549q0,2.154,0,4.308v1.423c.14,0,.272,0,.4,0a.459.459,0,0,1,.493.491q.01.852,0,1.705a.453.453,0,0,1-.491.493q-2.2.007-4.4,0a.453.453,0,0,1-.493-.49q-.01-.852,0-1.705a.459.459,0,0,1,.49-.494C207.409,291.763,207.535,291.767,207.678,291.767Zm.021-4.488c.142,0,.268,0,.394,0a.458.458,0,0,1,.491.493q.007,2.2,0,4.4a.457.457,0,0,1-.49.495c-.131.005-.263,0-.388,0v.885h3.572v-.885h-.229c-.547,0-.669-.125-.669-.677q0-2.669,0-5.338v-.257H207.7Z" transform="translate(-186.755 -196.333)" fill="#ec4d37"/>
    <path id="Path_75" data-name="Path 75" d="M228.643,185.747a1.794,1.794,0,1,1-1.788,1.788A1.812,1.812,0,0,1,228.643,185.747Zm0,2.69a.9.9,0,1,0-.892-.906A.9.9,0,0,0,228.645,188.437Z" transform="translate(-205.92 -101.083)" fill="#ec4d37"/>
    <path id="Path_76" data-name="Path 76" d="M444.206,244.6a8.744,8.744,0,0,0-.68-3.753c-.041-.1-.088-.19-.124-.288a.452.452,0,0,1,.2-.612.436.436,0,0,1,.607.253,14.858,14.858,0,0,1,.55,1.487,9.1,9.1,0,0,1,.174,4.3c-.059.307-.265.487-.512.449-.276-.042-.417-.283-.373-.611C444.116,245.354,444.171,244.88,444.206,244.6Z" transform="translate(-412.688 -152.805)" fill="#ec4d37"/>
    <path id="Path_77" data-name="Path 77" d="M422.961,205.753a.445.445,0,1,1-.444.446A.461.461,0,0,1,422.961,205.753Z" transform="translate(-392.783 -120.189)" fill="#ec4d37"/>
  </g>
</svg>
