<svg xmlns="http://www.w3.org/2000/svg" width="28.187" height="28.187" viewBox="0 0 28.187 28.187">
  <path id="calendar_1_" data-name="calendar (1)" d="M25.959,4.819H24.55V3.409a1.409,1.409,0,1,0-2.819,0V4.819H10.456V3.409A1.332,1.332,0,0,0,9.047,2,1.332,1.332,0,0,0,7.637,3.409V4.819H6.228A4.153,4.153,0,0,0,2,9.047v1.409H30.187V9.047A4.153,4.153,0,0,0,25.959,4.819ZM2,25.959a4.153,4.153,0,0,0,4.228,4.228H25.959a4.153,4.153,0,0,0,4.228-4.228V13.275H2Zm21.14-9.865A1.409,1.409,0,1,1,21.731,17.5,1.332,1.332,0,0,1,23.14,16.093Zm0,5.637a1.409,1.409,0,1,1-1.409,1.409A1.332,1.332,0,0,1,23.14,21.731Zm-7.047-5.637A1.409,1.409,0,1,1,14.684,17.5,1.332,1.332,0,0,1,16.093,16.093Zm0,5.637a1.409,1.409,0,1,1-1.409,1.409A1.332,1.332,0,0,1,16.093,21.731ZM9.047,16.093a1.409,1.409,0,1,1,0,2.819,1.409,1.409,0,1,1,0-2.819Zm0,5.637a1.409,1.409,0,1,1,0,2.819,1.409,1.409,0,0,1,0-2.819Z" transform="translate(-2 -2)" fill="#fff"/>
</svg>
