<svg xmlns="http://www.w3.org/2000/svg" width="24" height="26.786" viewBox="0 0 24 26.786">
  <g id="Group_2188" data-name="Group 2188" transform="translate(485.197 -110.821)">
    <path id="Path_92" data-name="Path 92" d="M-473.887,118.359c0-.914,0-1.779,0-2.645,0-.435.094-.53.526-.531q1.192,0,2.385,0c.632,0,.632,0,.736.638a6.69,6.69,0,0,0,.723-.394,4.793,4.793,0,0,0,1.9-2.349,3.412,3.412,0,0,0,.132-.991c.018-.7.265-1.1.806-1.234a1.321,1.321,0,0,1,1.468.739,2.9,2.9,0,0,1,.092,2.2c-.148.468-.377.91-.569,1.364-.036.086-.065.174-.111.3h.8c.707,0,1.416.042,2.119-.01a1.227,1.227,0,0,1,1.192,1.851c.636.815.656,1.295.067,1.945a1.216,1.216,0,0,1-.283,1.72,4.075,4.075,0,0,1,.082.866,1.165,1.165,0,0,1-1.185,1c-.449.007-.9,0-1.381,0v.329c0,2.324,0,4.647,0,6.971a2.487,2.487,0,0,1-1.863,2.47,3.184,3.184,0,0,1-.811.09q-3.816.01-7.632,0a.4.4,0,0,0-.414.232c-.825,1.45-1.662,2.892-2.5,4.337-.27.468-.558.47-.827,0-.834-1.445-1.67-2.888-2.5-4.337a.407.407,0,0,0-.414-.236,11.6,11.6,0,0,1-1.744-.048,2.422,2.422,0,0,1-2.09-2.376c-.032-1.174-.012-2.35-.013-3.525,0-1.917,0-3.834,0-5.752a2.506,2.506,0,0,1,2.034-2.574,3.623,3.623,0,0,1,.711-.049q4.107,0,8.215,0Zm0,.73h-8.575c-.1,0-.194,0-.291.009a1.721,1.721,0,0,0-1.689,1.708q-.037,4.717,0,9.434a1.727,1.727,0,0,0,1.8,1.711c.53.006,1.06.013,1.59,0a.612.612,0,0,1,.616.353c.745,1.312,1.505,2.616,2.261,3.922.046.08.1.156.161.255.064-.1.112-.175.155-.25.75-1.3,1.506-2.6,2.244-3.9a.66.66,0,0,1,.654-.38c2.641.01,5.282.007,7.923.005a1.783,1.783,0,0,0,1.918-1.917q0-3.459,0-6.917v-.292c-.572,0-1.1.021-1.63,0a5.687,5.687,0,0,1-3.12-.758,1.274,1.274,0,0,0-.385-.1c-.007.123-.013.2-.014.278-.006.412-.109.517-.52.518q-1.285,0-2.57,0c-.414,0-.522-.108-.523-.514q0-.875,0-1.749Zm3.626,2.043c.376.168.7.322,1.038.461a4.232,4.232,0,0,0,.863.317,10.577,10.577,0,0,0,1.6.171c1.218.024,2.437.009,3.656.007.355,0,.56-.169.563-.455s-.174-.443-.527-.453c-.441-.013-.883,0-1.324-.018a.353.353,0,0,1-.375-.389.35.35,0,0,1,.4-.338h.238c.494,0,.989.005,1.483,0a.476.476,0,0,0,.517-.457c.005-.255-.171-.428-.477-.462a3,3,0,0,0-.317-.013c-.415,0-.83,0-1.245,0a.342.342,0,0,1-.377-.357c-.005-.231.142-.35.366-.371.061-.006.124,0,.185,0,.53,0,1.059,0,1.589-.01a.448.448,0,0,0,.44-.616.452.452,0,0,0-.458-.3c-.512,0-1.024,0-1.536,0-.306,0-.482-.137-.483-.368s.175-.368.481-.369c.415,0,.83.006,1.245,0a.445.445,0,0,0,.459-.449.445.445,0,0,0-.442-.463c-.079-.006-.159,0-.238,0h-3.02c-.571,0-.684-.113-.6-.675a3.076,3.076,0,0,1,.209-.678c.084-.213.2-.411.3-.619a3.261,3.261,0,0,0,.332-1.746,1,1,0,0,0-.455-.852.362.362,0,0,0-.581.334c0,.044,0,.088,0,.132a3.622,3.622,0,0,1-.7,2.31,5.446,5.446,0,0,1-2.8,2.188Zm-2.868-5.207v6.081h2.1v-6.081Z" fill="#ec4d37"/>
    <path id="Path_93" data-name="Path 93" d="M-435.574,297.007a1.767,1.767,0,0,1-1.781-1.753,1.782,1.782,0,0,1,1.779-1.789,1.767,1.767,0,0,1,1.761,1.774A1.755,1.755,0,0,1-435.574,297.007Zm-.009-.737a1.022,1.022,0,0,0,1.035-1.018,1.041,1.041,0,0,0-1.032-1.055,1.053,1.053,0,0,0-1.041,1.052A1.038,1.038,0,0,0-435.583,296.27Z" transform="translate(-44.456 -169.715)" fill="#ec4d37"/>
    <path id="Path_94" data-name="Path 94" d="M-361.459,296.973a1.767,1.767,0,0,1-1.774-1.761,1.786,1.786,0,0,1,1.786-1.784,1.77,1.77,0,0,1,1.754,1.782A1.756,1.756,0,0,1-361.459,296.973Zm-.005-.737a1.022,1.022,0,0,0,1.038-1.015,1.041,1.041,0,0,0-1.029-1.058,1.054,1.054,0,0,0-1.044,1.049A1.038,1.038,0,0,0-361.464,296.237Z" transform="translate(-113.332 -169.682)" fill="#ec4d37"/>
    <path id="Path_95" data-name="Path 95" d="M-285.577,295.245a1.755,1.755,0,0,1-1.768,1.76,1.768,1.768,0,0,1-1.772-1.762,1.782,1.782,0,0,1,1.788-1.78A1.767,1.767,0,0,1-285.577,295.245Zm-1.766,1.023a1.022,1.022,0,0,0,1.032-1.02,1.041,1.041,0,0,0-1.034-1.052,1.054,1.054,0,0,0-1.039,1.028A1.038,1.038,0,0,0-287.343,296.268Z" transform="translate(-182.2 -169.713)" fill="#ec4d37"/>
  </g>
</svg>
