<svg xmlns="http://www.w3.org/2000/svg" width="19.178" height="23.558" viewBox="0 0 19.178 23.558">
  <path id="Fire_-_simple-line-icons" data-name="Fire - simple-line-icons" d="M9.5,23.558a10.54,10.54,0,0,1-3.826-.68,8.888,8.888,0,0,1-3.008-1.9A8.694,8.694,0,0,1,.7,18.072,9.457,9.457,0,0,1,0,14.407,8.606,8.606,0,0,1,.265,12.3a17.633,17.633,0,0,1,.588-1.9A14.314,14.314,0,0,1,1.452,9a5.162,5.162,0,0,1,.323-.588.576.576,0,0,1,.3-.3.815.815,0,0,1,.332-.074.754.754,0,0,1,.083,0,.71.71,0,0,1,.4.173.653.653,0,0,1,.219.357c.015.015.121.34.323.991a7.446,7.446,0,0,0,.738,1.683,7.358,7.358,0,0,0,.634.83,3.508,3.508,0,0,0,.657.576,17.664,17.664,0,0,1-.346-2.467A11.349,11.349,0,0,1,5.3,7.169,9.272,9.272,0,0,1,6.616,3.654a10.326,10.326,0,0,1,1.89-2.179A6.973,6.973,0,0,1,10.235.357c.495-.2.782-.318.83-.334a.75.75,0,0,1,.369,0,1.012,1.012,0,0,1,.346.162.787.787,0,0,1,.2.322.676.676,0,0,1,.012.369l-.093.692a12.936,12.936,0,0,0-.081,1.775,16.662,16.662,0,0,0,.219,2.4,10.364,10.364,0,0,0,.784,2.6c.074.148.161.311.265.5s.211.37.311.541c.031-.25.07-.506.115-.761a7.145,7.145,0,0,1,.185-.784,3.7,3.7,0,0,1,1.256-2.121c.549-.392.856-.607.888-.622a.67.67,0,0,1,.3-.074.657.657,0,0,1,.436.166.707.707,0,0,1,.242.311.663.663,0,0,1,.035.4c0,.03.012.36.035.98a5.44,5.44,0,0,0,.933,2.409,9.716,9.716,0,0,1,1.072,2.386,10.831,10.831,0,0,1,.288,2.732,9.189,9.189,0,0,1-.726,3.665,8.731,8.731,0,0,1-2.017,2.9,9.247,9.247,0,0,1-3.054,1.9A10.766,10.766,0,0,1,9.5,23.558ZM2.305,10.765a17.074,17.074,0,0,0-.565,1.729,7.185,7.185,0,0,0-.265,1.89,7.965,7.965,0,0,0,.588,3.088A7.165,7.165,0,0,0,3.723,19.9a7.711,7.711,0,0,0,2.547,1.6,8.837,8.837,0,0,0,3.227.576,9.155,9.155,0,0,0,3.3-.576,7.921,7.921,0,0,0,2.593-1.6,7.282,7.282,0,0,0,1.706-2.432,7.7,7.7,0,0,0,.611-3.088,9.384,9.384,0,0,0-.231-2.305,8.123,8.123,0,0,0-.922-2.029A9.678,9.678,0,0,1,15.836,8.6a6.5,6.5,0,0,1-.346-1.222,2.521,2.521,0,0,0-.219.38,2.691,2.691,0,0,0-.173.5,8.676,8.676,0,0,0-.323,2.293v1.118a.867.867,0,0,1-.127.461.716.716,0,0,1-.38.3.786.786,0,0,1-.461,0,.662.662,0,0,1-.369-.277l-.589-.875-.195-.289a15.862,15.862,0,0,1-1.176-2.017A12.069,12.069,0,0,1,10.8,7a14.952,14.952,0,0,1-.346-1.9,13.835,13.835,0,0,1-.092-1.729c.008-.535.027-1.016.058-1.429A9.624,9.624,0,0,0,8.356,3.746a7.366,7.366,0,0,0-1.6,3.7,9.477,9.477,0,0,0-.173,2.3A15.557,15.557,0,0,0,6.8,11.756a12.548,12.548,0,0,0,.334,1.429l.173.553a.77.77,0,0,1-.138.761.887.887,0,0,1-.334.207.692.692,0,0,1-.231.042.614.614,0,0,1-.149-.018c-.046-.015-.48-.205-1.291-.565a5.384,5.384,0,0,1-2.236-2.132c-.108-.185-.216-.391-.322-.611S2.4,10.979,2.305,10.765Z" fill="#ec4d37"/>
</svg>
