<svg xmlns="http://www.w3.org/2000/svg" width="18.99" height="24.113" viewBox="0 0 18.99 24.113">
  <g id="Group_2177" data-name="Group 2177" transform="translate(-282.88 303.48)">
    <path id="Path_58" data-name="Path 58" d="M286.866-303.48c.079.047.162.089.237.142a.7.7,0,0,1,.259.752.7.7,0,0,1-.68.516c-.7.006-1.4,0-2.1,0h-.271v1.413h.314c.385,0,.769-.007,1.154,0a.711.711,0,0,1,.695.693.711.711,0,0,1-.7.714c-.485.01-.97,0-1.467,0v1.414h.254c.683,0,1.366,0,2.049,0a.707.707,0,0,1,.772.706.707.707,0,0,1-.774.705c-.76,0-1.52,0-2.3,0V-295c.487,0,.965,0,1.442,0a.686.686,0,0,1,.663.441.63.63,0,0,1-.161.752,1.086,1.086,0,0,1-.55.208c-.46.029-.922.01-1.4.01v1.413h.251c.683,0,1.366,0,2.049,0a.707.707,0,0,1,.774.7.707.707,0,0,1-.772.707c-.76,0-1.52,0-2.3,0v1.413c.485,0,.962-.007,1.439,0a.7.7,0,0,1,.612,1.07.7.7,0,0,1-.632.341h-1.422v1.413h.249c.683,0,1.366,0,2.049,0a.708.708,0,0,1,.776.7.706.706,0,0,1-.77.709c-.76,0-1.52,0-2.3,0v1.413c.483,0,.96-.006,1.437,0a.705.705,0,0,1,.679.943.714.714,0,0,1-.695.467c-.469,0-.939,0-1.423,0v1.507h.246c.683,0,1.366,0,2.049,0a.708.708,0,0,1,.777.7.706.706,0,0,1-.768.71q-1.484,0-2.967,0a.709.709,0,0,1-.765-.741c0-.055,0-.11,0-.165q0-11.148-.005-22.3a.852.852,0,0,1,.547-.909Z" transform="translate(0 0)" fill="#fff"/>
    <path id="Path_59" data-name="Path 59" d="M458.461-303.48c.18.047.362.088.541.141a3.229,3.229,0,0,1,2.266,3.464,3.227,3.227,0,0,1-3.2,2.848,3.22,3.22,0,0,1-3.2-2.733,3.222,3.222,0,0,1,2.658-3.677.832.832,0,0,0,.129-.044Z" transform="translate(-161.139 0)" fill="#fff"/>
    <path id="Path_60" data-name="Path 60" d="M428.483-202.553l.494.707q1.331,1.911,2.662,3.823a.723.723,0,0,0,1.311,0q1.5-2.152,3-4.306c.053-.076.107-.151.169-.238a2.388,2.388,0,0,1,1.1,1.717,2.724,2.724,0,0,1,.023.376c0,1.8.007,3.609,0,5.414a2.381,2.381,0,0,1-1.843,2.416,2.769,2.769,0,0,1-.629.068q-2.472.008-4.944,0a2.362,2.362,0,0,1-2.463-2.369c-.032-1.882-.019-3.766,0-5.649A2.264,2.264,0,0,1,428.483-202.553Z" transform="translate(-135.373 -94.566)" fill="#fff"/>
    <path id="Path_61" data-name="Path 61" d="M455.191-21.578h6.4v.219q0,2.647,0,5.294c0,.613-.258.866-.876.866q-2.365,0-4.731,0a.712.712,0,0,1-.8-.778q-.006-2.73,0-5.459C455.181-21.482,455.188-21.528,455.191-21.578Z" transform="translate(-161.462 -264.17)" fill="#fff"/>
    <path id="Path_62" data-name="Path 62" d="M488.1-180.591a4.913,4.913,0,0,0,2.267,0l-1.133,1.629Z" transform="translate(-192.313 -115.156)" fill="#fff"/>
  </g>
</svg>
