<svg xmlns="http://www.w3.org/2000/svg" width="17.364" height="17.347" viewBox="0 0 17.364 17.347">
  <g id="Group_2187" data-name="Group 2187" transform="translate(314.788 178.717)">
    <path id="Path_90" data-name="Path 90" d="M-297.423-133.277a8.729,8.729,0,0,1-7.082,8.522,8.655,8.655,0,0,1-10.123-6.923,8.512,8.512,0,0,1,2.987-8.3.544.544,0,0,1,.808.023.555.555,0,0,1-.094.829,7.4,7.4,0,0,0-2.654,4.718,7.352,7.352,0,0,0,1.709,6.009,7.357,7.357,0,0,0,4.657,2.595,7.551,7.551,0,0,0,7.563-3.561,7.517,7.517,0,0,0-1.151-9.267c-.171-.166-.356-.319-.536-.475a.545.545,0,0,1-.1-.8.54.54,0,0,1,.805-.057,8.5,8.5,0,0,1,3.124,5.65C-297.464-133.975-297.451-133.625-297.423-133.277Z" transform="translate(0 -36.766)" fill="#ec4d37"/>
    <path id="Path_91" data-name="Path 91" d="M-139.959-174.1q0,2.01,0,4.02a.561.561,0,0,1-.382.566.5.5,0,0,1-.594-.172.846.846,0,0,1-.137-.434c-.008-2.231-.006-4.463-.006-6.694,0-.431,0-.862,0-1.293a.566.566,0,0,1,.562-.605.566.566,0,0,1,.556.611Q-139.958-176.1-139.959-174.1Z" transform="translate(-165.595)" fill="#ec4d37"/>
  </g>
</svg>
