<svg xmlns="http://www.w3.org/2000/svg" width="21.829" height="25.422" viewBox="0 0 21.829 25.422">
  <g id="Group_2185" data-name="Group 2185" transform="translate(413.135 89.061)">
    <path id="Path_78" data-name="Path 78" d="M-398.136-86.4c0,.818.023,1.622-.007,2.423a1.155,1.155,0,0,1-1.186,1.112q-4.408.007-8.816,0a1.151,1.151,0,0,1-1.189-1.107c-.031-.8-.008-1.606-.008-2.426-.65,0-1.361-.031-2.067.009a1.02,1.02,0,0,0-.989,1.107q0,9.9,0,19.8a1.038,1.038,0,0,0,.991,1.108,3.705,3.705,0,0,0,.42.02q7.243,0,14.487,0a3.6,3.6,0,0,0,.476-.026,1.03,1.03,0,0,0,.943-1.066c0-.5,0-.992,0-1.488,0-.3.136-.454.379-.445s.342.147.344.446c0,.505,0,1.011,0,1.516a1.779,1.779,0,0,1-1.628,1.764c-.149.014-.3.017-.449.017q-7.313,0-14.627,0a2.208,2.208,0,0,1-1.162-.257,1.708,1.708,0,0,1-.9-1.569q.009-4.324,0-8.648c0-3.7.022-7.395-.012-11.091a1.888,1.888,0,0,1,1.943-1.935c1.46.013,2.92,0,4.38.008a.425.425,0,0,0,.449-.262,2.883,2.883,0,0,1,4.265-1.135,3.047,3.047,0,0,1,1.009,1.184.338.338,0,0,0,.366.214q2.246-.01,4.492,0a1.84,1.84,0,0,1,1.841,1.4,1.16,1.16,0,0,1,.031.25c0,1.02,0,2.04,0,3.061a.343.343,0,0,1-.339.4c-.224.018-.367-.129-.385-.385,0-.065,0-.131,0-.2q0-1.306,0-2.611a1.081,1.081,0,0,0-1.181-1.184c-.618-.005-1.235,0-1.853,0C-398.141-86.407-398.168-86.4-398.136-86.4Zm-5.614,2.813q2.161,0,4.322,0c.4,0,.566-.161.568-.557q.006-.856,0-1.712c0-.38-.17-.544-.553-.547-.533,0-1.067-.01-1.6,0a.485.485,0,0,1-.524-.359,2.32,2.32,0,0,0-2.208-1.565,2.328,2.328,0,0,0-2.2,1.572.484.484,0,0,1-.528.353c-.514-.013-1.029,0-1.544,0-.45,0-.6.153-.6.612q0,.786,0,1.572c0,.494.139.634.633.634Z" transform="translate(0)" fill="#ec4d37"/>
    <path id="Path_79" data-name="Path 79" d="M-288.7,13.3a12.084,12.084,0,0,1-.529,4.105,10.28,10.28,0,0,1-3.758,5.152c-.694.519-1.452.953-2.194,1.4a.558.558,0,0,1-.465.033,12.771,12.771,0,0,1-4.786-4.061,10.387,10.387,0,0,1-1.754-5.682c-.025-.917,0-1.835-.012-2.752a.458.458,0,0,1,.358-.494c2.057-.711,4.112-1.429,6.17-2.135a.71.71,0,0,1,.429-.006c2.068.709,4.131,1.43,6.2,2.143a.456.456,0,0,1,.348.5C-288.714,12.033-288.7,12.557-288.7,13.3Zm-.723.2c0-.661-.009-1.13,0-1.6a.3.3,0,0,0-.235-.343c-1.855-.636-3.706-1.284-5.562-1.918a.749.749,0,0,0-.451,0c-1.865.636-3.725,1.287-5.589,1.927a.263.263,0,0,0-.216.3c.012.861-.015,1.723.02,2.583a9.514,9.514,0,0,0,1.549,5,11.819,11.819,0,0,0,4.327,3.744.363.363,0,0,0,.3-.02c.437-.252.875-.505,1.292-.788a9.967,9.967,0,0,0,3.848-4.562A10.815,10.815,0,0,0-289.428,13.5Z" transform="translate(-102.611 -90.552)" fill="#ec4d37"/>
    <path id="Path_80" data-name="Path 80" d="M-376.31,183.409h3.085c.084,0,.191-.028.247.012a.74.74,0,0,1,.292.315.289.289,0,0,1-.252.37,1.42,1.42,0,0,1-.306.024q-3.042,0-6.085,0c-.43,0-.6-.11-.6-.375s.161-.346.589-.346Z" transform="translate(-30.717 -252.022)" fill="#ec4d37"/>
    <path id="Path_81" data-name="Path 81" d="M-376.651,155.125h-2.525a1.409,1.409,0,0,1-.224-.006.343.343,0,0,1-.323-.387.326.326,0,0,1,.347-.331c.393,0,.786,0,1.178,0h4.237a.344.344,0,0,1,.393.344.351.351,0,0,1-.389.38c-.449.009-.9,0-1.347,0Z" transform="translate(-30.905 -225.196)" fill="#ec4d37"/>
    <path id="Path_82" data-name="Path 82" d="M-377.653,125.276c.608,0,1.216,0,1.823,0,.31,0,.469.125.472.357s-.16.369-.461.369q-1.838,0-3.675,0c-.31,0-.478-.147-.468-.393.009-.227.147-.332.458-.333C-378.887,125.274-378.27,125.275-377.653,125.276Z" transform="translate(-30.685 -198.258)" fill="#ec4d37"/>
    <path id="Path_83" data-name="Path 83" d="M-377.739,67.778c-.617,0-1.234,0-1.85,0a.371.371,0,0,1-.416-.3c-.059-.257.109-.426.441-.428.72-.005,1.439,0,2.159,0,.523,0,1.047-.016,1.569.012a.609.609,0,0,1,.393.238.366.366,0,0,1-.067.346.592.592,0,0,1-.378.123C-376.506,67.785-377.123,67.778-377.739,67.778Z" transform="translate(-30.633 -144.4)" fill="#ec4d37"/>
    <path id="Path_84" data-name="Path 84" d="M-377.632,96.863c-.607,0-1.214,0-1.821,0-.315,0-.469-.118-.475-.35s.158-.374.456-.375q1.849,0,3.7,0c.283,0,.442.136.447.357s-.155.367-.457.368C-376.4,96.864-377.016,96.862-377.632,96.863Z" transform="translate(-30.716 -171.303)" fill="#ec4d37"/>
    <path id="Path_85" data-name="Path 85" d="M-377.627,38.139c.618,0,1.235,0,1.853,0,.294,0,.444.123.448.348s-.147.364-.433.365q-1.867.006-3.733,0c-.286,0-.438-.14-.434-.364s.154-.347.447-.349C-378.862,38.137-378.244,38.139-377.627,38.139Z" transform="translate(-30.717 -117.658)" fill="#ec4d37"/>
    <path id="Path_86" data-name="Path 86" d="M-305.1-65.814a1.411,1.411,0,0,1,1.394,1.422,1.412,1.412,0,0,1-1.4,1.416A1.413,1.413,0,0,1-306.5-64.4,1.409,1.409,0,0,1-305.1-65.814Zm-.013,2.115a.679.679,0,0,0,.681-.672.677.677,0,0,0-.659-.718.671.671,0,0,0-.68.669A.681.681,0,0,0-305.112-63.7Z" transform="translate(-98.637 -21.503)" fill="#ec4d37"/>
    <path id="Path_87" data-name="Path 87" d="M-236.057,67.543c-.318,0-.636,0-.954,0a.663.663,0,0,1-.714-.876c.118-.538.237-1.077.376-1.61a.507.507,0,0,0-.122-.525,1.769,1.769,0,0,1-.115-2.313,1.894,1.894,0,0,1,2.238-.687,1.918,1.918,0,0,1,1.217,2.057,2.953,2.953,0,0,1-.5.98.5.5,0,0,0-.1.43q.2.83.389,1.664a.666.666,0,0,1-.712.879C-235.383,67.545-235.72,67.543-236.057,67.543Zm-.957-.747h1.968c-.131-.567-.24-1.117-.39-1.656a.7.7,0,0,1,.225-.812,1.2,1.2,0,0,0,.311-1.363,1.138,1.138,0,0,0-1-.824,1.169,1.169,0,0,0-1.221.707,1.279,1.279,0,0,0,.278,1.494.663.663,0,0,1,.221.786C-236.771,65.673-236.882,66.23-237.014,66.8Z" transform="translate(-162.033 -139.178)" fill="#ec4d37"/>
  </g>
</svg>
