<svg xmlns="http://www.w3.org/2000/svg" width="21.272" height="24.147" viewBox="0 0 21.272 24.147">
  <g id="Group_2184" data-name="Group 2184" transform="translate(107.055 60.824)">
    <path id="Path_63" data-name="Path 63" d="M-105.761-17.139a4.442,4.442,0,0,1-.675-.316,1.392,1.392,0,0,1-.608-1.094c-.008-.1-.009-.2-.009-.306q0-9.7,0-19.4a1.718,1.718,0,0,1,.26-1.032,1.468,1.468,0,0,1,1.229-.676c.7-.01,1.4-.006,2.1,0,.262,0,.41.133.411.35s-.152.354-.409.355c-.652,0-1.3,0-1.957,0a.824.824,0,0,0-.921.914q0,9.8,0,19.591a.827.827,0,0,0,.927.911h11.576c.063,0,.126,0,.189,0,.2-.012.384.023.462.239s-.052.354-.214.469Z" transform="translate(0 -19.539)" fill="#ec4d37"/>
    <path id="Path_64" data-name="Path 64" d="M90.079,187.035c-.2-.043-.4-.084-.592-.131a4.545,4.545,0,1,1,1.665.088.739.739,0,0,0-.13.043Zm4.308-4.557a3.84,3.84,0,1,0-3.827,3.849A3.84,3.84,0,0,0,94.388,182.478Z" transform="translate(-180.891 -223.713)" fill="#ec4d37"/>
    <path id="Path_65" data-name="Path 65" d="M-24.606-60.824h2.946a1.069,1.069,0,0,1,1.166,1.175c0,.354,0,.707,0,1.06a1.05,1.05,0,0,1-1.079,1.1q-3.04.015-6.08,0a1.043,1.043,0,0,1-1.07-1.081c-.01-.392-.011-.786,0-1.178a1.049,1.049,0,0,1,1.1-1.072C-26.617-60.826-25.612-60.824-24.606-60.824Zm.016.707q-1.5,0-2.991,0c-.307,0-.431.12-.436.425q-.008.53,0,1.06c0,.308.125.434.431.434q2.98,0,5.959,0c.3,0,.421-.134.424-.441,0-.338,0-.675,0-1.013s-.118-.465-.467-.466Z" transform="translate(-73.388 0)" fill="#ec4d37"/>
    <path id="Path_66" data-name="Path 66" d="M120.993-33.061q0,2.687,0,5.374a1.128,1.128,0,0,1-.029.3.316.316,0,0,1-.357.243.321.321,0,0,1-.313-.3,2.33,2.33,0,0,1-.008-.282q0-5.3,0-10.607a1.694,1.694,0,0,0-.051-.465.784.784,0,0,0-.766-.554c-.66-.007-1.32,0-1.98,0a.882.882,0,0,1-.211-.011.331.331,0,0,1-.281-.376.31.31,0,0,1,.321-.313c.785,0,1.574-.037,2.356.016a1.5,1.5,0,0,1,1.322,1.6c0,1.414,0,2.828,0,4.243Z" transform="translate(-209.932 -19.45)" fill="#ec4d37"/>
    <path id="Path_67" data-name="Path 67" d="M-53.679,124.788h-5.54a1.5,1.5,0,0,1-.235-.005.328.328,0,0,1-.306-.332.33.33,0,0,1,.275-.359.941.941,0,0,1,.234-.011h11.126a1.215,1.215,0,0,1,.212.006.334.334,0,0,1,.308.356.331.331,0,0,1-.323.342,1.843,1.843,0,0,1-.212,0Z" transform="translate(-44.315 -173.254)" fill="#ec4d37"/>
    <path id="Path_68" data-name="Path 68" d="M-53.684,79.585h5.515a1.99,1.99,0,0,1,.259.008.32.32,0,0,1,.3.334.321.321,0,0,1-.285.349,1.281,1.281,0,0,1-.234.015q-5.562,0-11.124,0a.972.972,0,0,1-.279-.029.314.314,0,0,1-.232-.342.311.311,0,0,1,.26-.319,1.384,1.384,0,0,1,.281-.016Z" transform="translate(-44.312 -131.563)" fill="#ec4d37"/>
    <path id="Path_69" data-name="Path 69" d="M-53.663,168.741h5.492a2.3,2.3,0,0,1,.259.008.321.321,0,0,1,.307.329.324.324,0,0,1-.278.355,1.1,1.1,0,0,1-.234.015q-5.562,0-11.125,0a1.014,1.014,0,0,1-.279-.027.315.315,0,0,1-.237-.36.311.311,0,0,1,.275-.306,1.646,1.646,0,0,1,.282-.013Z" transform="translate(-44.315 -215.102)" fill="#ec4d37"/>
    <path id="Path_70" data-name="Path 70" d="M-55.492,213.94h-3.724a1.71,1.71,0,0,1-.235-.006.324.324,0,0,1-.307-.328.327.327,0,0,1,.273-.36,1.048,1.048,0,0,1,.258-.013h7.471c.36,0,.534.113.539.35s-.169.357-.527.358Z" transform="translate(-44.316 -256.79)" fill="#ec4d37"/>
    <path id="Path_71" data-name="Path 71" d="M-56.61,19.223h2.757c.315,0,.48.125.476.357s-.167.35-.464.35q-2.757,0-5.514,0c-.206,0-.381-.047-.438-.27a.32.32,0,0,1,.2-.4.676.676,0,0,1,.253-.032Q-57.976,19.221-56.61,19.223Z" transform="translate(-44.272 -75.004)" fill="#ec4d37"/>
    <path id="Path_72" data-name="Path 72" d="M130.87,223.278l1.83-2.26c.124-.153.243-.309.373-.456a.353.353,0,0,1,.5-.057.342.342,0,0,1,.037.5q-1.233,1.534-2.477,3.058a.343.343,0,0,1-.595-.033q-.543-.742-1.069-1.495a.355.355,0,1,1,.58-.4C130.322,222.507,130.584,222.879,130.87,223.278Z" transform="translate(-221.543 -263.529)" fill="#ec4d37"/>
  </g>
</svg>
