<svg xmlns="http://www.w3.org/2000/svg" width="19.402" height="19.397" viewBox="0 0 19.402 19.397">
  <g id="Group_2176" data-name="Group 2176" transform="translate(-156.371 136.514)">
    <path id="Path_56" data-name="Path 56" d="M175.86-121.98H156.466v-.262q0-5.582,0-11.163a2.98,2.98,0,0,1,3.106-3.108h13.191a2.988,2.988,0,0,1,3.1,3.1q0,5.582,0,11.163Zm-5.425-5.04a1.143,1.143,0,0,0,.1-.06c.774-.61,1.55-1.219,2.321-1.833a.74.74,0,0,0,.261-.853,4.928,4.928,0,0,0-.807-1.614,5.922,5.922,0,0,0-3.27-2.054,11.285,11.285,0,0,0-4.459-.225,7.6,7.6,0,0,0-3.435,1.208,4.586,4.586,0,0,0-1.944,2.668.734.734,0,0,0,.2.813c.7.569,1.408,1.121,2.115,1.681.21-.156.4-.31.607-.45a7.142,7.142,0,0,1,3.457-1.328.42.42,0,0,0,.267-.174c.519-.782,1.026-1.573,1.54-2.359a.748.748,0,0,1,1.067-.264.748.748,0,0,1,.189,1.066c-.191.3-.388.6-.582.9l-.641.989A6.725,6.725,0,0,1,170.435-127.02Zm-1.17.942c-1.883-2.012-4.413-1.947-6.511-.251.053.046.1.092.156.135q1.362,1.076,2.725,2.15a.735.735,0,0,0,1.051,0c.38-.3.756-.6,1.134-.894Z" transform="translate(-0.089)" fill="#fff"/>
    <path id="Path_57" data-name="Path 57" d="M156.4,121.176h19.353a3.088,3.088,0,0,1-.178,1.408,2.972,2.972,0,0,1-2.763,1.935q-6.746.008-13.492,0A2.971,2.971,0,0,1,156.4,121.176Z" transform="translate(0 -241.641)" fill="#fff"/>
  </g>
</svg>
