<svg xmlns="http://www.w3.org/2000/svg" width="32.432" height="28.903" viewBox="0 0 32.432 28.903">
  <path id="Path_17" data-name="Path 17" d="M-454.817,6.552a1.245,1.245,0,0,0-.134,1.718,18.118,18.118,0,0,1,2.805,6.453,1.413,1.413,0,0,1-.528,1.679,7.247,7.247,0,0,1-7.171,1.227c-1.392-.414-1.557-.432-1.612,1.013-.065,1.7-1.157,3.077-1.221,4.738-.034.894-.056,1.789-.091,2.684-.022.553.14.842.75.583,1.336-.567,2.619-.071,3.877.282.766.215.919,1.046,1.159,1.709.819,2.268.81,2.267-1.569,2.273-4.874.011-9.748.039-14.622.023-.559,0-1.4.372-1.638-.34A3.1,3.1,0,0,1-474.727,28a1.957,1.957,0,0,1,1.595-1.129c.636-.031.743-.393.743-.931a7.218,7.218,0,0,0-.35-2.533c-.648-1.781-1.232-3.587-1.82-5.389-.209-.641-.443-.824-1.011-.289a3.882,3.882,0,0,1-3.581.928c-1.587-.284-3.222-.338-4.366-1.736a1.243,1.243,0,0,1-.283-1.033c.191-2.533,1.535-4.58,2.682-6.717a4.156,4.156,0,0,0,.444-.97.527.527,0,0,0-.409-.659c-.37-.07-.356.256-.4.493a4.156,4.156,0,0,0-.16.84c.012.89-.455,1.043-1.238.979-1.484-.121-1.508-.153-1.427-1.686a19.034,19.034,0,0,1,.746-4.107c.333-1.2,1.149-.644,1.807-.642.729,0,.838.494.8,1.114-.04.6-.4,1.335-.014,1.758.48.526,1.084-.2,1.661-.283a3.186,3.186,0,0,1,1.672.216c.821.353.927-.068,1.068-.664.288-1.213,1.035-1.556,2.228-1.073a.568.568,0,0,1,.38.678,40.073,40.073,0,0,1-.791,4.976c-.272,1.023-.94.76-1.593.721-.675-.04-.931-.374-.839-1.061.051-.383.22-.924-.441-1.016a1.174,1.174,0,0,0-1.41.693,6.662,6.662,0,0,0-.747,4.128c.095.446.178.647.669.512,1.409-.387,2.942-.209,4.224-1.228a2.53,2.53,0,0,1,2.48-.1c.742.288,1.591.588,2.086-.332a2.636,2.636,0,0,0,.137-2.858,1.763,1.763,0,0,1-.378-1.944,2.133,2.133,0,0,0-.027-.95,2.681,2.681,0,0,1,1.309-2.743,2.668,2.668,0,0,1,2.95,0c1,.648.935,1.724,1.037,2.778.16,1.66-.716,3.133-.678,4.758.032,1.342.847,2.012,2.064,1.51a4.262,4.262,0,0,1,3.821.283c1.2.638,2.447-.125,3.66.141.168.037.288-.163.361-.342.447-1.091-.221-4.362-1.086-5.072a1.291,1.291,0,0,0-1.208-.271c-.482.181-.242.679-.214,1.046.111,1.5.064,1.536-1.311,1.66a.894.894,0,0,1-1.065-.645,13.2,13.2,0,0,1-1.125-5.1c.035-1.064.97-.728,1.511-.975s.777.138.875.622c.057.28.111.561.168.841.069.335.221.5.6.375a4.062,4.062,0,0,1,3.1-.216c.233.105.491-.085.482-.414-.007-.25-.044-.5-.059-.75-.1-1.593.5-2.174,2.054-2.045.317.026.4.214.512.454a13.141,13.141,0,0,1,.937,5.246c.016.654-.494.574-.872.715a1.129,1.129,0,0,1-1.51-.64A10.987,10.987,0,0,1-454.817,6.552Z" transform="translate(484.337 -2.125)" fill="#fff"/>
</svg>
